<?xml version="1.0" encoding="UTF-8"?>
<!DOCTYPE svg PUBLIC "-//W3C//DTD SVG 1.1//EN" "http://www.w3.org/Graphics/SVG/1.1/DTD/svg11.dtd">
<!-- Creator: CorelDRAW 2019 (64-Bit) -->
<svg xmlns="http://www.w3.org/2000/svg" xml:space="preserve" width="1920px" height="1080px" version="1.1" style="shape-rendering:geometricPrecision; text-rendering:geometricPrecision; image-rendering:optimizeQuality; fill-rule:evenodd; clip-rule:evenodd"
viewBox="0 0 1920 1080"
 xmlns:xlink="http://www.w3.org/1999/xlink">
 <defs>
  <style type="text/css">
   <![CDATA[
    .str0 {stroke:#2B2A29;stroke-miterlimit:22.9256}
    .str1 {stroke:#2B2A29;stroke-width:2;stroke-miterlimit:22.9256}
    .str2 {stroke:#2B2A29;stroke-width:3;stroke-miterlimit:22.9256}
    .fil0 {fill:none}
   ]]>
  </style>
 </defs>
 <g id="Слой_x0020_1">
  <metadata id="CorelCorpID_0Corel-Layer"/>
  <g id="Секция_x0020_1">
   <g id="Лестница_x0020_и_x0020_лифт">
    <rect class="fil0 str0" x="865.42" y="376.13" width="39.84" height="79.68"/>
    <line class="fil0 str0" x1="905.26" y1="415.97" x2="865.41" y2= "415.97" />
    <line class="fil0 str0" x1="905.26" y1="406.01" x2="865.41" y2= "406.01" />
    <line class="fil0 str0" x1="905.26" y1="396.05" x2="865.41" y2= "396.05" />
    <line class="fil0 str0" x1="905.26" y1="386.09" x2="865.41" y2= "386.09" />
    <line class="fil0 str0" x1="905.26" y1="435.9" x2="865.41" y2= "435.9" />
    <line class="fil0 str0" x1="905.26" y1="445.86" x2="865.41" y2= "445.86" />
    <line class="fil0 str0" x1="905.26" y1="425.94" x2="865.41" y2= "425.94" />
    <rect class="fil0 str0" x="974.98" y="376.13" width="39.84" height="79.68"/>
    <line class="fil0 str0" x1="1014.82" y1="415.97" x2="974.98" y2= "415.97" />
    <line class="fil0 str0" x1="1014.82" y1="406.01" x2="974.98" y2= "406.01" />
    <line class="fil0 str0" x1="1014.82" y1="396.05" x2="974.98" y2= "396.05" />
    <line class="fil0 str0" x1="1014.82" y1="386.09" x2="974.98" y2= "386.09" />
    <line class="fil0 str0" x1="1014.82" y1="435.9" x2="974.98" y2= "435.9" />
    <line class="fil0 str0" x1="1014.82" y1="445.86" x2="974.98" y2= "445.86" />
    <line class="fil0 str0" x1="1014.82" y1="425.94" x2="974.98" y2= "425.94" />
    <line class="fil0 str0" x1="885.34" y1="376.13" x2="885.34" y2= "455.82" />
    <line class="fil0 str0" x1="885.34" y1="455.95" x2="882.74" y2= "445.99" />
    <line class="fil0 str0" x1="885.34" y1="455.85" x2="887.99" y2= "445.89" />
    <line class="fil0 str0" x1="994.9" y1="455.82" x2="994.9" y2= "376.13" />
    <line class="fil0 str0" x1="994.9" y1="376" x2="997.5" y2= "385.96" />
    <line class="fil0 str0" x1="994.9" y1="376.1" x2="992.25" y2= "386.06" />
    <rect class="fil0 str0" x="905.26" y="376.13" width="69.72" height="79.68"/>
    <line class="fil0 str0" x1="974.98" y1="376.13" x2="905.26" y2= "455.82" />
    <line class="fil0 str0" x1="905.26" y1="376.13" x2="974.98" y2= "455.82" />
   </g>
   <g id="Перегородки_x0020_квартир">
    <line class="fil0 str1" x1="616.4" y1="341.78" x2="716.01" y2= "341.78" />
    <line class="fil0 str1" x1="716.01" y1="294.05" x2="865.41" y2= "294.05" />
    <line class="fil0 str1" x1="716.01" y1="341.78" x2="716.01" y2= "411.51" />
    <line class="fil0 str1" x1="716.01" y1="440.98" x2="716.01" y2= "491.71" />
    <line class="fil0 str1" x1="716.01" y1="534.4" x2="716.01" y2= "539.97" />
    <line class="fil0 str1" x1="716.01" y1="491.19" x2="716.01" y2= "496.76" />
    <line class="fil0 str1" x1="666.21" y1="441.39" x2="616.41" y2= "441.39" />
    <line class="fil0 str1" x1="666.21" y1="525.55" x2="666.21" y2= "539.97" />
    <line class="fil0 str1" x1="665.25" y1="441.39" x2="670.23" y2= "441.39" />
    <line class="fil0 str1" x1="716.86" y1="441.39" x2="711.06" y2= "441.39" />
    <line class="fil0 str1" x1="666.2" y1="474.58" x2="616.4" y2= "474.58" />
    <line class="fil0 str1" x1="666.27" y1="441.39" x2="666.27" y2= "446.37" />
    <line class="fil0 str1" x1="666.2" y1="474.58" x2="666.2" y2= "469.6" />
    <line class="fil0 str1" x1="666.2" y1="474.58" x2="666.2" y2= "500.92" />
    <line class="fil0 str1" x1="716.01" y1="539.97" x2="716.01" y2= "545.55" />
    <line class="fil0 str1" x1="716.01" y1="576.45" x2="716.01" y2= "665.54" />
    <line class="fil0 str1" x1="815.61" y1="590.8" x2="769.94" y2= "590.8" />
    <line class="fil0 str1" x1="815.61" y1="639.6" x2="716.01" y2= "639.6" />
    <line class="fil0 str1" x1="716.01" y1="695.42" x2="716.01" y2= "740.21" />
    <line class="fil0 str1" x1="736.74" y1="590.8" x2="716.01" y2= "590.8" />
    <line class="fil0 str1" x1="716.01" y1="786.75" x2="840.51" y2= "786.75" />
    <line class="fil0 str1" x1="815.61" y1="639.6" x2="855.45" y2= "639.6" />
    <line class="fil0 str1" x1="855.45" y1="588.29" x2="855.45" y2= "639.6" />
    <line class="fil0 str1" x1="855.47" y1="559.53" x2="855.47" y2= "539.97" />
    <line class="fil0 str1" x1="840.51" y1="786.75" x2="970" y2= "786.75" />
    <line class="fil0 str1" x1="970" y1="786.75" x2="1094.51" y2= "786.75" />
    <line class="fil0 str1" x1="1119.41" y1="639.6" x2="1079.57" y2= "639.6" />
    <line class="fil0 str1" x1="1079.57" y1="588.47" x2="1079.57" y2= "639.6" />
    <line class="fil0 str1" x1="1094.46" y1="786.75" x2="1219.02" y2= "786.75" />
    <line class="fil0 str1" x1="1219.02" y1="695.42" x2="1219.02" y2= "740.21" />
    <line class="fil0 str1" x1="1219.02" y1="639.6" x2="1119.41" y2= "639.6" />
    <line class="fil0 str1" x1="1219.02" y1="665.54" x2="1219.02" y2= "574.88" />
    <line class="fil0 str1" x1="1219.02" y1="544.99" x2="1219.02" y2= "540.01" />
    <line class="fil0 str1" x1="1119.41" y1="589.8" x2="1165.08" y2= "589.8" />
    <line class="fil0 str1" x1="1198.28" y1="589.8" x2="1219.02" y2= "589.8" />
    <line class="fil0 str1" x1="1014.82" y1="294.05" x2="1164.23" y2= "294.05" />
    <line class="fil0 str1" x1="1164.23" y1="441.39" x2="1164.23" y2= "491.19" />
    <line class="fil0 str1" x1="1263.84" y1="440.36" x2="1313.64" y2= "440.36" />
    <line class="fil0 str1" x1="1263.84" y1="525.55" x2="1263.84" y2= "539.97" />
    <line class="fil0 str1" x1="1263.84" y1="468.59" x2="1263.84" y2= "473.57" />
    <line class="fil0 str1" x1="1263.84" y1="473.57" x2="1313.64" y2= "473.57" />
    <line class="fil0 str1" x1="1263.84" y1="473.57" x2="1263.84" y2= "495.67" />
    <line class="fil0 str1" x1="1263.84" y1="439.46" x2="1263.84" y2= "445.34" />
    <line class="fil0 str1" x1="1164.23" y1="411.51" x2="1164.23" y2= "341.78" />
    <line class="fil0 str1" x1="1079.57" y1="559.18" x2="1079.57" y2= "539.97" />
    <line class="fil0 str1" x1="765.81" y1="491.19" x2="716.01" y2= "491.19" />
   </g>
   <g id="Контуры_x0020_квартир">
    <line class="fil0 str2" x1="616.4" y1="740.21" x2="1313.64" y2= "740.21" />
    <line class="fil0 str2" x1="616.4" y1="341.78" x2="865.41" y2= "341.78" />
    <line class="fil0 str2" x1="1313.64" y1="341.41" x2="1313.64" y2= "740.6" />
    <line class="fil0 str2" x1="616.4" y1="341.31" x2="616.4" y2= "740.76" />
    <line class="fil0 str2" x1="716.01" y1="291.98" x2="716.01" y2= "341.78" />
    <line class="fil0 str2" x1="865.41" y1="291.58" x2="865.41" y2= "341.78" />
    <line class="fil0 str2" x1="865.41" y1="341.78" x2="865.41" y2= "491.19" />
    <line class="fil0 str2" x1="616.3" y1="539.97" x2="770.91" y2= "539.97" />
    <line class="fil0 str2" x1="865.41" y1="491.19" x2="765.81" y2= "491.19" />
    <line class="fil0 str2" x1="765.81" y1="534.06" x2="765.81" y2= "539.63" />
    <line class="fil0 str2" x1="765.81" y1="489.73" x2="765.81" y2= "497.79" />
    <line class="fil0 str2" x1="814.97" y1="539.97" x2="860.7" y2= "539.97" />
    <line class="fil0 str2" x1="865.41" y1="491.19" x2="865.41" y2= "496.76" />
    <line class="fil0 str2" x1="865.16" y1="534.39" x2="865.16" y2= "539.97" />
    <line class="fil0 str2" x1="810.63" y1="539.97" x2="815.61" y2= "539.97" />
    <line class="fil0 str2" x1="815.61" y1="539.63" x2="815.61" y2= "739.87" />
    <line class="fil0 str2" x1="716.01" y1="740.21" x2="716.01" y2= "790.01" />
    <line class="fil0 str2" x1="840.51" y1="790.01" x2="840.51" y2= "740.21" />
    <line class="fil0 str2" x1="970" y1="539.97" x2="970" y2= "740.21" />
    <line class="fil0 str2" x1="911.93" y1="539.97" x2="971.26" y2= "539.97" />
    <line class="fil0 str2" x1="860.43" y1="539.97" x2="872" y2= "539.97" />
    <line class="fil0 str2" x1="970" y1="539.97" x2="1032.2" y2= "539.97" />
    <line class="fil0 str2" x1="970" y1="740.21" x2="970" y2= "790.01" />
    <line class="fil0 str2" x1="1119.41" y1="539.97" x2="1119.41" y2= "740.21" />
    <line class="fil0 str2" x1="1119.41" y1="539.97" x2="1069.61" y2= "539.97" />
    <line class="fil0 str2" x1="1094.51" y1="790.01" x2="1094.51" y2= "740.21" />
    <line class="fil0 str2" x1="1157.59" y1="539.97" x2="1313.64" y2= "539.97" />
    <line class="fil0 str2" x1="1219.02" y1="740.21" x2="1219.02" y2= "790.01" />
    <line class="fil0 str2" x1="1118.96" y1="539.97" x2="1124.39" y2= "539.97" />
    <line class="fil0 str2" x1="864.1" y1="291.98" x2="1016.21" y2= "291.98" />
    <line class="fil0 str2" x1="1014.82" y1="291.5" x2="1014.82" y2= "341.78" />
    <line class="fil0 str2" x1="1014.82" y1="341.78" x2="1313.64" y2= "341.78" />
    <line class="fil0 str2" x1="1164.23" y1="291.98" x2="1164.23" y2= "341.78" />
    <line class="fil0 str2" x1="1014.82" y1="341.78" x2="1014.82" y2= "491.19" />
    <line class="fil0 str2" x1="1014.82" y1="491.19" x2="1164.23" y2= "491.19" />
    <line class="fil0 str2" x1="1164.23" y1="489.79" x2="1164.23" y2= "496.17" />
    <line class="fil0 str2" x1="1164.26" y1="534.99" x2="1164.26" y2= "539.97" />
    <line class="fil0 str2" x1="1014.82" y1="490.43" x2="1014.82" y2= "496.17" />
    <line class="fil0 str2" x1="1014.85" y1="534.99" x2="1014.85" y2= "539.97" />
   </g>
   <g id="Засечки">
    <line class="fil0 str0" x1="713.05" y1="411.51" x2="718.96" y2= "411.51" />
    <line class="fil0 str0" x1="663.32" y1="446.37" x2="669.22" y2= "446.37" />
    <line class="fil0 str0" x1="663.25" y1="500.92" x2="669.16" y2= "500.92" />
    <line class="fil0 str0" x1="663.25" y1="469.6" x2="669.16" y2= "469.6" />
    <line class="fil0 str0" x1="663.26" y1="525.55" x2="669.16" y2= "525.55" />
    <line class="fil0 str0" x1="670.23" y1="438.43" x2="670.23" y2= "444.34" />
    <line class="fil0 str0" x1="711.06" y1="438.43" x2="711.06" y2= "444.34" />
    <line class="fil0 str0" x1="713.05" y1="534.4" x2="718.96" y2= "534.4" />
    <line class="fil0 str0" x1="713.05" y1="496.76" x2="718.96" y2= "496.76" />
    <line class="fil0 str0" x1="713.05" y1="545.55" x2="718.96" y2= "545.55" />
    <line class="fil0 str0" x1="713.05" y1="576.45" x2="718.96" y2= "576.45" />
    <line class="fil0 str0" x1="713.05" y1="665.54" x2="718.96" y2= "665.54" />
    <line class="fil0 str0" x1="713.05" y1="695.42" x2="718.96" y2= "695.42" />
    <line class="fil0 str0" x1="852.52" y1="559.53" x2="858.43" y2= "559.53" />
    <line class="fil0 str0" x1="852.5" y1="588.29" x2="858.41" y2= "588.29" />
    <line class="fil0 str0" x1="1076.61" y1="588.47" x2="1082.52" y2= "588.47" />
    <line class="fil0 str0" x1="1076.61" y1="559.18" x2="1082.52" y2= "559.18" />
    <line class="fil0 str0" x1="1216.06" y1="695.42" x2="1221.97" y2= "695.42" />
    <line class="fil0 str0" x1="1216.06" y1="665.54" x2="1221.97" y2= "665.54" />
    <line class="fil0 str0" x1="1216.06" y1="574.88" x2="1221.97" y2= "574.88" />
    <line class="fil0 str0" x1="1216.06" y1="544.99" x2="1221.97" y2= "544.99" />
    <line class="fil0 str0" x1="1260.89" y1="525.55" x2="1266.79" y2= "525.55" />
    <line class="fil0 str0" x1="1260.89" y1="495.67" x2="1266.79" y2= "495.67" />
    <line class="fil0 str0" x1="1260.89" y1="468.59" x2="1266.79" y2= "468.59" />
    <line class="fil0 str0" x1="1260.89" y1="445.34" x2="1266.79" y2= "445.34" />
    <line class="fil0 str0" x1="1161.28" y1="411.51" x2="1167.19" y2= "411.51" />
    <line class="fil0 str0" x1="1161.28" y1="441.39" x2="1167.19" y2= "441.39" />
    <line class="fil0 str0" x1="736.74" y1="587.84" x2="736.74" y2= "593.75" />
    <line class="fil0 str0" x1="769.94" y1="587.84" x2="769.94" y2= "593.75" />
    <line class="fil0 str0" x1="1165.08" y1="586.85" x2="1165.08" y2= "592.75" />
    <line class="fil0 str0" x1="1198.28" y1="586.85" x2="1198.28" y2= "592.75" />
    <line class="fil0 str2" x1="762.86" y1="497.79" x2="768.76" y2= "497.79" />
    <line class="fil0 str2" x1="762.86" y1="534.06" x2="768.76" y2= "534.06" />
    <line class="fil0 str0" x1="810.63" y1="537.02" x2="810.63" y2= "542.92" />
    <line class="fil0 str0" x1="770.91" y1="537.02" x2="770.91" y2= "542.92" />
    <line class="fil0 str2" x1="872" y1="537.02" x2="872" y2= "542.92" />
    <line class="fil0 str2" x1="911.93" y1="537.02" x2="911.93" y2= "542.92" />
    <line class="fil0 str2" x1="1032.2" y1="537.02" x2="1032.2" y2= "542.92" />
    <line class="fil0 str2" x1="1069.61" y1="537.02" x2="1069.61" y2= "542.92" />
    <line class="fil0 str2" x1="1124.39" y1="537.02" x2="1124.39" y2= "542.92" />
    <line class="fil0 str2" x1="1157.59" y1="537.02" x2="1157.59" y2= "542.92" />
    <line class="fil0 str2" x1="1161.28" y1="496.17" x2="1167.19" y2= "496.17" />
    <line class="fil0 str2" x1="1161.31" y1="534.99" x2="1167.21" y2= "534.99" />
   </g>
  </g>
 </g>
</svg>
